<svg xmlns="http://www.w3.org/2000/svg" width="50" height="51" viewBox="0 0 50 51">
    <g fill="none">
        <path fill="#ECEEF1" d="M34.748 8.435C29.052 4.195 3.833 17.299 6.476 27.16c2.642 9.861 18.991 18.932 28.483 14.948 9.491-3.985 5.484-29.435-.211-33.674z" opacity=".6" transform="translate(0 .414)"/>
        <g>
            <g fill="#2098CE" stroke="#2098CE" stroke-width="1.5">
                <path d="M14.473.75c-1.974 0-3.764.812-5.06 2.122C8.114 4.184 7.31 5.996 7.31 7.995c0 1.998.804 3.81 2.103 5.123 1.296 1.31 3.086 2.121 5.06 2.121 1.974 0 3.763-.812 5.06-2.121 1.299-1.313 2.103-3.125 2.103-5.123 0-1.999-.804-3.811-2.103-5.123C18.236 1.562 16.447.75 14.473.75zM16.796 18.738H12.15c-2.994 0-5.709 1.232-7.676 3.219-1.968 1.989-3.188 4.736-3.188 7.765 0 .442.177.842.464 1.132.284.287.676.465 1.109.465h15.295c-.815-1.583-1.276-3.377-1.276-5.277 0-2.637.887-5.072 2.38-7.02-.792-.186-1.616-.284-2.462-.284z" transform="translate(0 .414) translate(5.385 5.385) translate(1.603 3.205)"/>
            </g>
            <g>
                <path stroke="#135E80" stroke-width="1.5" d="M9.215.75c-2.334 0-4.45.95-5.982 2.483C1.7 4.765.75 6.88.75 9.215c0 2.333.95 4.45 2.483 5.982 1.532 1.533 3.648 2.482 5.982 2.482 2.333 0 4.45-.95 5.982-2.482 1.533-1.533 2.482-3.649 2.482-5.982 0-2.334-.95-4.45-2.482-5.982C13.664 1.7 11.548.75 9.215.75z" transform="translate(0 .414) translate(5.385 5.385) translate(20.833 20.032)"/>
                <path fill="#135E80" d="M9.23 3.846c.37 0 .616.246.616.616v.369c1.354.246 2.339 1.107 2.462 2.215 0 .37-.246.616-.616.616-.369 0-.615-.247-.615-.616 0-.492-.615-.984-1.23-1.108V8.4c1.6.37 2.46 1.23 2.46 2.338 0 1.477-1.107 2.462-2.46 2.708v.615c0 .37-.247.616-.616.616-.37 0-.616-.246-.616-.616v-.615c-1.353-.246-2.338-1.108-2.461-2.215 0-.37.246-.616.615-.616.37 0 .616.246.616.616 0 .492.615.984 1.23 1.107V9.877c-1.6-.37-2.461-1.23-2.461-2.339 0-1.23 1.108-2.215 2.461-2.461v-.615c0-.37.247-.616.616-.616zm.616 6.03v2.216c.739-.123 1.23-.615 1.23-1.107 0-.493-.368-.862-1.23-1.108zm-1.23-3.691c-.739.123-1.231.615-1.231 1.107 0 .493.369.862 1.23 1.108V6.185z" transform="translate(0 .414) translate(5.385 5.385) translate(20.833 20.032)"/>
            </g>
        </g>
    </g>
</svg>
