<svg xmlns="http://www.w3.org/2000/svg" width="50" height="51" viewBox="0 0 50 51">
    <g fill="none">
        <path fill="#ECEEF1" d="M9.061 14.168c-4.756 6.39 8.603 30.584 19.667 27.62C39.792 38.822 49.97 20.478 45.5 9.83 41.03-.819 13.817 7.778 9.06 14.168z" opacity=".6" transform="translate(0 .414)"/>
        <g>
            <g>
                <path stroke="#551515" stroke-width="1.5" d="M9.583.75c-2.435 0-4.643.991-6.242 2.59C1.74 4.94.75 7.149.75 9.584c0 2.435.991 4.644 2.59 6.243 1.6 1.6 3.808 2.59 6.243 2.59 2.435 0 4.644-.99 6.243-2.59 1.6-1.6 2.59-3.808 2.59-6.243 0-2.435-.99-4.643-2.59-6.242C14.226 1.74 12.018.75 9.583.75z" transform="translate(0 .414) translate(8.462 6.154) translate(.064 .032)"/>
                <path fill="#551515" d="M9.6 4c.384 0 .64.256.64.64v.384c1.408.256 2.432 1.152 2.56 2.304 0 .384-.256.64-.64.64s-.64-.256-.64-.64c0-.512-.64-1.024-1.28-1.152v2.56c1.664.384 2.56 1.28 2.56 2.432 0 1.536-1.152 2.56-2.56 2.816v.64c0 .384-.256.64-.64.64s-.64-.256-.64-.64v-.64c-1.408-.256-2.432-1.152-2.56-2.304 0-.384.256-.64.64-.64s.64.256.64.64c0 .512.64 1.024 1.28 1.152v-2.56C7.296 9.888 6.4 8.992 6.4 7.84c0-1.28 1.152-2.304 2.56-2.56v-.64c0-.384.256-.64.64-.64zm.64 6.272v2.304c.768-.128 1.28-.64 1.28-1.152 0-.512-.384-.896-1.28-1.152zm-1.28-3.84c-.768.128-1.28.64-1.28 1.152 0 .512.384.896 1.28 1.152V6.432z" transform="translate(0 .414) translate(8.462 6.154) translate(.064 .032)"/>
            </g>
            <path fill="#691c32" d="M31.426 20.176h-1.13c-.745-2.283-2.203-4.31-4.15-5.881 0-.072-.016-.152-.032-.224-.409-1.435.096-2.74.68-3.678.41-.657-.12-1.499-.889-1.403-1.722.217-2.908.85-3.726 1.563-.56.489-.961 1.146-1.137 1.875-1.234 5.112-5.842 8.918-11.33 8.918-2.669 0-5.12-.897-7.084-2.404-.68 1.475-1.05 3.085-1.05 4.776 0 .913.113 1.803.321 2.66 0 0 0 .016.008.04.216.89.545 1.747.962 2.556.552 1.194 1.354 2.588 2.46 3.718 1.594 1.643 1.867 3.678 1.907 4.56v.432c.032.433.392.778.833.778h5.064c.457 0 .833-.37.833-.834v-1.25c.738.096 1.49.152 2.252.152.6 0 1.186-.032 1.77-.096v1.194c0 .457.37.834.834.834h5.08c.457 0 .834-.37.834-.834v-1.25c.008-.416.152-2.075 1.722-3.493l.169-.145c.016-.016.032-.024.048-.04 1.746-1.554 3.037-3.493 3.702-5.657h1.065c.85 0 1.539-.689 1.539-1.538v-3.79c-.016-.85-.705-1.539-1.555-1.539zm-6.338.273c-.697 0-1.258-.561-1.258-1.258s.561-1.258 1.258-1.258 1.258.56 1.258 1.258c0 .697-.56 1.258-1.258 1.258z" transform="translate(0 .414) translate(8.462 6.154)"/>
        </g>
    </g>
</svg>
