<svg xmlns="http://www.w3.org/2000/svg" width="100" height="100" viewBox="0 0 100 100">
    <g fill="none">
        <path fill="#ECEEF1" d="M96.673 70.337c9.87-13.262-17.854-63.472-40.816-57.32C32.895 19.17 11.773 57.24 21.051 79.34c9.278 22.1 65.752 4.259 75.622-9.003z" opacity=".6"/>
        <g>
            <path fill="#691c32" d="M56.25 0H10.096C4.53 0 0 4.529 0 10.096V56.25c0 5.567 4.529 10.096 10.096 10.096h23.729c-4.809-4.232-7.863-10.413-7.863-17.307 0-12.725 10.352-23.077 23.077-23.077 6.894 0 13.075 3.054 17.307 7.863V10.096C66.346 4.53 61.817 0 56.25 0zM25.538 55.229c.562.562.562 1.477 0 2.04-.28.282-.65.423-1.019.423-.37 0-.738-.141-1.021-.42l-6.19-6.194-6.19 6.19c-.283.283-.653.424-1.022.424s-.738-.141-1.021-.421c-.562-.562-.562-1.477 0-2.04l6.193-6.193-6.19-6.19c-.562-.563-.562-1.477 0-2.04.563-.562 1.477-.562 2.04 0L17.307 47l6.19-6.19c.563-.563 1.477-.563 2.04 0 .562.562.565 1.474.002 2.04l-6.193 6.19 6.19 6.19zm1.866-35.037h-7.212v7.212c0 .796-.646 1.442-1.442 1.442-.796 0-1.442-.646-1.442-1.442v-7.212h-7.212c-.796 0-1.442-.646-1.442-1.442 0-.796.646-1.442 1.442-1.442h7.212v-7.212c0-.796.646-1.442 1.442-1.442.796 0 1.442.646 1.442 1.442v7.212h7.212c.796 0 1.442.646 1.442 1.442 0 .796-.646 1.442-1.442 1.442zm28.846 0H41.827c-.796 0-1.442-.646-1.442-1.442 0-.796.646-1.442 1.442-1.442H56.25c.796 0 1.442.646 1.442 1.442 0 .796-.646 1.442-1.442 1.442z" transform="translate(16.923 15.385)"/>
            <path fill="#551515" d="M49.039 28.846c-11.135 0-20.193 9.058-20.193 20.192 0 11.135 9.058 20.193 20.193 20.193 11.134 0 20.192-9.058 20.192-20.192 0-11.135-9.058-20.193-20.192-20.193zm7.211 25.962H41.827c-.796 0-1.442-.647-1.442-1.443s.646-1.442 1.442-1.442H56.25c.796 0 1.442.646 1.442 1.442 0 .797-.646 1.443-1.442 1.443zm0-8.654H41.827c-.796 0-1.442-.646-1.442-1.443 0-.796.646-1.442 1.442-1.442H56.25c.796 0 1.442.646 1.442 1.442 0 .797-.646 1.443-1.442 1.443z" transform="translate(16.923 15.385)"/>
        </g>
    </g>
</svg>
