<svg xmlns="http://www.w3.org/2000/svg" width="100" height="100" viewBox="0 0 100 100">
    <g fill="none">
        <path fill="#ECEEF1" d="M86.191 79.57c12.224-9.669-.771-62.156-23.182-62.156-22.41 0-50.933 29.513-47.877 51.902 3.056 22.388 58.835 19.921 71.059 10.253z" opacity=".6"/>
        <g>
            <path fill="#551515" d="M29.492 18.864c3.466-3.466 9.106-3.466 12.572 0 1.329 1.329 2.183 3.004 2.484 4.804h9.331c-2.14-4.102-1.867-9.142.811-13.008l-4.42-4.421c-2.15 1.489-4.66 2.237-7.173 2.237s-5.024-.748-7.173-2.237l-17.43 17.43h8.514c.302-1.801 1.155-3.476 2.484-4.805zM39.195 2.967c2.421 1.33 5.382 1.33 7.803 0L44.69.66c-.88-.881-2.308-.881-3.19 0l-2.306 2.306zM57.962 21.733l2.306-2.306c.88-.881.88-2.31 0-3.19l-2.306-2.306c-1.33 2.42-1.33 5.381 0 7.802z" transform="translate(20 10.77)"/>
            <path fill="#551515" d="M32.682 22.054c-.465.464-.812 1.016-1.027 1.614h8.247c-.216-.598-.562-1.15-1.027-1.614-1.708-1.708-4.486-1.708-6.193 0z" transform="translate(20 10.77)"/>
            <path fill="#691c32" d="M56.96 28.18H4.194c-2.242 0-4.066 1.824-4.066 4.067v40.61c0 2.242 1.824 4.066 4.066 4.066h52.911c2.242 0 4.067-1.824 4.067-4.066V62.464H50.163c-5.465 0-9.912-4.447-9.912-9.913 0-5.465 4.447-9.912 9.912-9.912h11.008V32.247c0-2.243-1.825-4.068-4.067-4.068h-.143z" transform="translate(20 10.77)"/>
            <path fill="#551515" d="M44.762 52.551c0 2.979 2.423 5.402 5.401 5.402h11.009V47.15H50.163c-2.978 0-5.401 2.423-5.401 5.401zm8.704 0c.055 1.218-1.075 2.256-2.255 2.256-1.264 0-2.2-1.034-2.255-2.256-.055-1.218 1.075-2.255 2.255-2.255 1.265 0 2.2 1.033 2.255 2.255z" transform="translate(20 10.77)"/>
        </g>
    </g>
</svg>
